<svg width="128" height="128" viewBox="0 0 128 128" fill="none" xmlns="http://www.w3.org/2000/svg">
<g id="Slackbot">
<g clip-path="url(#clip0_5_9)">
<rect width="128" height="127.999" rx="22" fill="white"/>
<path id="Vector" d="M0.00501948 67.5653C2.69978 67.5778 5.30955 67.7203 7.92682 68.0753C9.41919 72.8086 12.3977 76.1796 17.1148 77.7982C21.8131 79.4105 26.2015 78.5668 30.3074 75.6983C38.2404 80.3367 44.8298 86.4574 50.0231 94.073C57.02 104.333 60.3972 116.051 60.436 127.947C60.2847 127.962 60.1272 127.994 59.9697 127.994C47.0346 127.995 34.0995 128.009 21.1644 127.989C12.8451 127.976 5.60578 123.039 2.17733 116.051C1.43364 114.534 0.897441 112.944 0.507475 111.299C0.147507 109.779 0.00876915 108.239 0.00751926 106.684C0.0025197 93.8117 0.00501948 80.9391 0.00501948 68.0665C0.00501948 67.9215 0.00501948 67.7778 0.00501948 67.5666V67.5653Z" fill="#E01E59"/>
<path id="Vector_2" d="M67.5878 127.994C67.3616 107.211 78.8081 86.4811 97.7202 75.7196C98.1239 75.9783 98.5376 76.252 98.9601 76.512C100.89 77.6994 102.987 78.3519 105.248 78.5193C109.015 78.7968 112.365 77.7257 115.282 75.3671C117.502 73.5723 119.057 71.2887 119.884 68.539C119.986 68.204 120.131 68.0215 120.519 67.999C122.905 67.859 125.29 67.6928 127.676 67.5378C127.756 67.5328 127.836 67.5528 127.954 67.5666C127.968 67.7165 127.993 67.8553 127.993 67.994C127.993 80.9491 128.015 93.9042 127.981 106.859C127.969 111.674 126.433 116.012 123.455 119.801C120.207 123.935 115.967 126.514 110.825 127.591C109.484 127.873 108.119 127.996 106.746 127.996C93.853 127.994 80.9604 127.995 68.0678 127.996C67.9228 127.996 67.7791 127.996 67.5891 127.996L67.5878 127.994Z" fill="#EDB22E"/>
<path id="Vector_3" d="M127.994 60.4534C126.656 60.4109 125.39 60.3997 124.128 60.3234C122.842 60.2459 121.561 60.086 120.274 60.0022C119.871 59.976 119.758 59.7422 119.646 59.4398C118.762 57.0675 117.352 55.0614 115.406 53.4453C113.24 51.6454 110.763 50.5618 107.954 50.2393C104.578 49.8519 101.471 50.5943 98.6101 52.4091C98.5051 52.4754 98.3963 52.5366 98.2438 52.6279C89.0834 47.3671 81.7165 40.2389 76.2245 31.1935C69.4401 20.022 67.4865 8.47924 67.5865 0.037478C67.764 0.026229 67.944 0.00623075 68.124 0.00623075C80.9541 0.00498086 93.7842 -0.0125176 106.614 0.0124802C112.486 0.0237292 117.546 2.12479 121.726 6.24318C124.784 9.25792 126.736 12.9163 127.565 17.1285C127.839 18.5196 127.972 19.9607 127.975 21.3781C128.005 34.2082 127.992 47.0383 127.992 59.8685V60.4522L127.994 60.4534ZM103.943 29.0737C103.408 29.1087 102.43 29.1249 101.462 29.2449C98.0701 29.6636 95.2991 32.8758 95.4653 36.4593C95.5741 38.8041 96.5515 40.6427 98.4163 42.0275C99.695 42.9775 101.149 43.3987 102.735 43.3737C104.335 43.3499 105.931 43.2837 107.518 43.6099C110.169 44.1536 112.695 44.921 114.76 46.8159C115.85 47.8158 117.232 48.272 118.692 48.357C120.907 48.487 122.795 47.7308 124.352 46.1197C126.951 43.4287 127.001 38.8691 124.075 36.0768C122.655 34.7219 121.049 33.6108 119.302 32.7084C114.624 30.2911 109.644 29.1124 103.943 29.0737Z" fill="#2EB57D"/>
<path id="Vector_4" d="M29.7886 52.6191C21.2694 46.9746 10.9878 51.543 8.188 59.8685C5.53074 60.3097 2.81722 60.3897 0.0537171 60.4434C0.0374685 60.2847 0.00747118 60.126 0.00747118 59.9685C0.00622129 47.0121 -0.013777 34.057 0.0187202 21.1007C0.0312191 16.2173 1.63108 11.8465 4.67706 8.03555C7.90178 3.99965 12.0852 1.46362 17.1385 0.429966C18.5133 0.14874 19.9432 0.0262511 21.3481 0.0225014C34.1795 -0.00624609 47.0096 0.00625281 59.841 0.00500292C60.0247 0.00500292 60.2084 0.00500292 60.4359 0.00500292C60.4122 9.73665 58.2549 18.9058 53.819 27.5126C48.2857 38.2504 40.2164 46.5772 29.7874 52.6179L29.7886 52.6191ZM23.8629 30.3548C22.4018 30.4936 20.8456 30.5798 19.3083 30.7998C16.8985 31.1448 14.5512 31.7697 12.2751 32.6459C9.24041 33.8158 6.42941 35.3631 4.07711 37.6442C2.06604 39.594 1.3311 41.9526 2.01105 44.6986C3.25969 49.7381 9.65162 51.7392 13.5188 48.2733C14.7374 47.1809 16.1023 46.4022 17.6259 45.8597C18.9958 45.3723 20.3869 44.9786 21.8456 44.8711C22.7317 44.8061 23.6304 44.6198 24.5016 44.7048C28.3437 45.0823 32.0959 42.505 32.5071 38.1679C32.8396 34.662 30.3348 31.2798 26.8701 30.6411C25.9139 30.4648 24.929 30.4498 23.8604 30.3523L23.8629 30.3548Z" fill="#36C4F0"/>
<path id="Vector_5" d="M63.9344 78.0606C62.3571 77.9556 60.7697 77.9294 59.2061 77.7244C57.805 77.5407 56.4188 77.2069 55.0464 76.8582C51.0255 75.8371 47.3621 74.0522 44.0337 71.5812C42.6938 70.5863 42.2376 69.2064 42.525 67.6228C42.8825 65.6505 45.0873 64.3681 47.0471 64.8243C47.6996 64.9768 48.2483 65.2505 48.767 65.6305C50.8618 67.1691 53.1604 68.3027 55.6226 69.1251C57.0013 69.5851 58.4037 69.9163 59.8423 70.1201C62.0533 70.4338 64.2669 70.485 66.4879 70.2775C71.2213 69.8351 75.5546 68.2952 79.4031 65.4917C81.2854 64.1206 83.9039 64.6843 84.9888 66.5254C85.9625 68.1777 85.6075 70.415 83.9314 71.6112C82.4565 72.6636 80.9217 73.6135 79.3006 74.4234C76.5158 75.8158 73.5873 76.782 70.5351 77.3782C68.3565 77.8044 66.1567 78.0131 63.9332 78.0619L63.9344 78.0606Z" fill="#3E103E"/>
<path id="Vector_6" d="M21.6031 74.296C16.2023 74.3735 11.5527 69.5851 11.7377 64.1219C11.8302 61.3921 12.8626 59.1173 14.7624 57.2312C16.7035 55.3039 19.1083 54.3252 21.8243 54.4177C27.6588 54.6177 31.7047 59.0561 31.6147 64.5231C31.5197 70.2888 26.8539 74.3522 21.6031 74.296ZM25.4815 63.9969C27.2763 64.0706 29.1049 62.712 29.1287 60.5197C29.1512 58.4574 27.7463 56.8975 25.4327 56.9062C23.7104 56.9125 22.1043 58.3699 22.0468 60.3822C21.9893 62.4095 23.7866 64.0281 25.4815 63.9969Z" fill="#3E103E"/>
<path id="Vector_7" d="M106.206 74.2959C100.744 74.3734 96.1417 69.4726 96.3504 64.0256C96.5504 58.8323 100.835 54.2839 106.431 54.4227C112.198 54.5664 116.346 58.9548 116.225 64.648C116.106 70.2088 111.542 74.3597 106.206 74.2972V74.2959ZM110.107 63.9968C111.907 64.0618 113.753 62.697 113.738 60.4984C113.723 58.3573 112.325 56.9 110.035 56.9075C108.332 56.9137 106.712 58.3611 106.66 60.3934C106.607 62.4182 108.411 64.0356 110.107 63.9968Z" fill="#3E103E"/>
<path id="Vector_8" d="M64.0181 90.8045C61.9108 90.8658 59.856 90.4983 57.8049 90.1083C57.1387 89.9821 56.4713 89.8183 55.8363 89.5859C54.444 89.0772 53.4378 88.121 53.1678 86.6424C52.8304 84.79 53.7965 82.8552 55.8788 82.264C56.6138 82.0553 57.3487 82.0678 58.0799 82.294C59.7248 82.8015 61.3996 83.0652 63.1257 83.1464C65.4393 83.2552 67.6841 82.9727 69.8864 82.3028C71.9849 81.6653 74.3397 82.764 74.8334 85.2475C75.0609 86.3936 74.7784 87.4798 73.9285 88.4135C73.1348 89.2846 72.1387 89.6309 71.0575 89.8708C69.5901 90.1971 68.134 90.5733 66.6191 90.6333C65.7505 90.667 64.8843 90.747 64.0181 90.807V90.8045Z" fill="#E8E8E8"/>
<path id="Vector_9" d="M103.943 29.0737C109.645 29.1124 114.624 30.2911 119.302 32.7084C121.048 33.6108 122.654 34.7219 124.075 36.0768C127.001 38.8678 126.95 43.4274 124.352 46.1197C122.795 47.7308 120.907 48.487 118.692 48.357C117.232 48.2707 115.85 47.8158 114.76 46.8159C112.696 44.9223 110.169 44.1536 107.518 43.6099C105.931 43.2837 104.335 43.3499 102.735 43.3737C101.149 43.3974 99.695 42.9762 98.4163 42.0275C96.5515 40.6427 95.5741 38.8041 95.4653 36.4593C95.2991 32.8758 98.0701 29.6636 101.462 29.2449C102.428 29.1262 103.408 29.1087 103.943 29.0737Z" fill="#3E103E"/>
<path id="Vector_10" d="M23.8616 30.3548C24.9303 30.4523 25.9152 30.4673 26.8714 30.6435C30.3361 31.2822 32.8409 34.6657 32.5084 38.1704C32.0972 42.5062 28.345 45.0848 24.5028 44.7073C23.6317 44.6211 22.733 44.8085 21.8468 44.8735C20.3882 44.981 18.9958 45.3747 17.6272 45.8622C16.1048 46.4047 14.7399 47.1833 13.5201 48.2757C9.65289 51.7417 3.26096 49.7406 2.01232 44.7011C1.33238 41.9538 2.06731 39.5965 4.07838 37.6467C6.42943 35.3656 9.24043 33.8183 12.2764 32.6484C14.5512 31.7709 16.8985 31.1472 19.3095 30.8023C20.8469 30.5823 22.4018 30.4961 23.8641 30.3573L23.8616 30.3548Z" fill="#3E103E"/>
<path id="Vector_11" d="M25.4815 63.9969C23.7867 64.0294 21.9894 62.4107 22.0468 60.3822C22.1043 58.3686 23.7104 56.9125 25.4328 56.9062C27.7463 56.8975 29.1512 58.4573 29.1287 60.5197C29.105 62.712 27.2764 64.0706 25.4815 63.9969Z" fill="white"/>
<path id="Vector_12" d="M110.108 63.9969C108.413 64.0356 106.609 62.4182 106.661 60.3934C106.713 58.3623 108.333 56.9137 110.037 56.9075C112.326 56.9 113.724 58.3573 113.739 60.4984C113.754 62.697 111.908 64.0618 110.108 63.9969Z" fill="white"/>
</g>
</g>
<defs>
<clipPath id="clip0_5_9">
<rect width="128" height="127.999" rx="22" fill="white"/>
</clipPath>
</defs>
</svg>
